<svg id="Layer_1" data-name="Layer 1" xmlns="http://www.w3.org/2000/svg" viewBox="0 0 20 24.5"><defs><style>.cls-1{fill:#11e7d7;}.cls-2{fill:none;}.cls-2,.cls-3{stroke:#23253e;stroke-miterlimit:10;}.cls-3{fill:#fff;}.cls-4{fill:#aa9ce8;}.cls-5{fill:#23253e;}</style></defs><title>No1</title><path class="cls-1" d="M10,.682a8.371,8.371,0,0,1,8.372,8.372H1.628V9.04A8.372,8.372,0,0,1,10,.682Z"/><line class="cls-2" x1="1.628" y1="9.054" x2="18.372" y2="9.054"/><path class="cls-2" d="M10,17.314a8.373,8.373,0,1,1,8.373-8.372v.014A8.372,8.372,0,0,1,10,17.314Z"/><path class="cls-3" d="M10,14.7a5.757,5.757,0,1,1,5.756-5.756v.01A5.756,5.756,0,0,1,10,14.7Z"/><path class="cls-4" d="M1.006,22.535h18.02a.99.99,0,0,1,.99.99h0a.99.99,0,0,1-.99.99H1.006a.99.99,0,0,1-.99-.99h0A.99.99,0,0,1,1.006,22.535Z"/><path class="cls-5" d="M12.436,12.562H7.6v-.869l1.84-1.851a15.349,15.349,0,0,0,1.082-1.184A2.83,2.83,0,0,0,10.907,8a1.78,1.78,0,0,0,.122-.66,1,1,0,0,0-.29-.761,1.113,1.113,0,0,0-.8-.279,2.139,2.139,0,0,0-.794.152A3.711,3.711,0,0,0,8.256,7l-.62-.757a3.989,3.989,0,0,1,1.157-.713,3.385,3.385,0,0,1,1.2-.21,2.352,2.352,0,0,1,1.6.52,1.758,1.758,0,0,1,.6,1.4,2.448,2.448,0,0,1-.173.918,3.774,3.774,0,0,1-.532.9A12.065,12.065,0,0,1,10.287,10.3l-1.24,1.2v.048h3.389Z"/></svg>