<svg id="Layer_1" data-name="Layer 1" xmlns="http://www.w3.org/2000/svg" viewBox="0 0 20 24.5"><defs><style>.cls-1{fill:#11e7d7;}.cls-2{fill:none;}.cls-2,.cls-3{stroke:#23253e;stroke-miterlimit:10;}.cls-3{fill:#fff;}.cls-4{fill:#aa9ce8;}.cls-5{fill:#23253e;}</style></defs><title>No1</title><path class="cls-1" d="M10,.682a8.371,8.371,0,0,1,8.372,8.372H1.628V9.04A8.372,8.372,0,0,1,10,.682Z"/><line class="cls-2" x1="1.628" y1="9.054" x2="18.372" y2="9.054"/><path class="cls-2" d="M10,17.314a8.373,8.373,0,1,1,8.373-8.372v.014A8.372,8.372,0,0,1,10,17.314Z"/><path class="cls-3" d="M10,14.7a5.757,5.757,0,1,1,5.756-5.756v.01A5.756,5.756,0,0,1,10,14.7Z"/><path class="cls-4" d="M1.006,22.535h18.02a.99.99,0,0,1,.99.99h0a.99.99,0,0,1-.99.99H1.006a.99.99,0,0,1-.99-.99h0A.99.99,0,0,1,1.006,22.535Z"/><path class="cls-5" d="M12.524,7.04a1.652,1.652,0,0,1-.4,1.13,1.985,1.985,0,0,1-1.113.608v.039a2.155,2.155,0,0,1,1.289.535,1.53,1.53,0,0,1,.43,1.135,1.882,1.882,0,0,1-.728,1.589,3.335,3.335,0,0,1-2.07.559,4.666,4.666,0,0,1-2-.385V11.229a4.59,4.59,0,0,0,.962.347,4.2,4.2,0,0,0,.976.122,2.062,2.062,0,0,0,1.241-.308,1.113,1.113,0,0,0,.41-.952.907.907,0,0,0-.454-.84A2.9,2.9,0,0,0,9.643,9.33h-.62V8.4h.63q1.708,0,1.709-1.181a.872.872,0,0,0-.3-.708,1.334,1.334,0,0,0-.879-.25,2.674,2.674,0,0,0-.781.115,3.732,3.732,0,0,0-.889.447l-.561-.8a3.739,3.739,0,0,1,2.28-.722,2.71,2.71,0,0,1,1.684.463A1.524,1.524,0,0,1,12.524,7.04Z"/></svg>