<svg id="Layer_1" data-name="Layer 1" xmlns="http://www.w3.org/2000/svg" viewBox="0 0 20 24.5"><defs><style>.cls-1{fill:#11e7d7;}.cls-2{fill:none;}.cls-2,.cls-3{stroke:#23253e;stroke-miterlimit:10;}.cls-3{fill:#fff;}.cls-4{fill:#aa9ce8;}.cls-5{fill:#23253e;}</style></defs><title>No1</title><path class="cls-1" d="M10,.682a8.371,8.371,0,0,1,8.372,8.372H1.628V9.04A8.372,8.372,0,0,1,10,.682Z"/><line class="cls-2" x1="1.628" y1="9.054" x2="18.372" y2="9.054"/><path class="cls-2" d="M10,17.314a8.373,8.373,0,1,1,8.373-8.372v.014A8.372,8.372,0,0,1,10,17.314Z"/><path class="cls-3" d="M10,14.7a5.757,5.757,0,1,1,5.756-5.756v.01A5.756,5.756,0,0,1,10,14.7Z"/><path class="cls-4" d="M1.006,22.535h18.02a.99.99,0,0,1,.99.99h0a.99.99,0,0,1-.99.99H1.006a.99.99,0,0,1-.99-.99h0A.99.99,0,0,1,1.006,22.535Z"/><path class="cls-5" d="M10.873,12.624H9.725V8.014q0-.825.039-1.308c-.075.078-.167.164-.276.259s-.474.394-1.1.9l-.576-.728,2.1-1.65h.957Z"/></svg>